<?xml version="1.0" encoding="UTF-8"?>
<svg id="Layer_2" data-name="Layer 2" xmlns="http://www.w3.org/2000/svg" viewBox="0 0 403.38 578.11">
  <defs>
    <style>
      .cls-1 {
        stroke-width: 0px;
      }
    </style>
  </defs>
  <g id="Layer_1-2" data-name="Layer 1">
    <path class="cls-1" d="m259.33,395.23c3.93,1.52,7.44,2.62,10.66,4.27.86.44,1.43,2.66,1.19,3.88-3.91,20.26-10.34,39.72-18.93,58.48-7.01,15.3-15.05,29.99-25.83,42.98-4.24,5.11-9.16,9.69-14,14.27-1.85,1.75-3.01,3.36-3.1,6.04-.1,2.85-.72,5.74-1.51,8.5-3.74,13.08-7.61,26.12-11.44,39.17-.42,1.42-.91,2.81-1.71,5.3-.73-2.59-1.14-4.11-1.58-5.62-3.83-13.19-8.18-26.26-11.29-39.62-1.77-7.59-5.6-12.73-11.4-17.6-11.77-9.89-20.86-22.17-28.68-35.38-13.65-23.07-23.46-47.64-29.45-73.78-.8-3.5-.03-5.04,3.47-5.79,2.66-.57,5.19-1.79,7.84-2.75,10.01,40.06,24.42,77.6,54.76,106.79.41-.14.82-.28,1.22-.42,0-1.58,0-3.16,0-4.74-.03-7.44.04-14.88-.18-22.32-.05-1.68-1.14-3.32-1.68-5.01-.34-1.05-.75-2.13-.79-3.2-.14-3.65-.31-7.32-.12-10.97.14-2.69-.72-3.96-3.36-4.89-9.57-3.37-15.19-10.01-15.81-20.43,0-.13-.05-.26-.03-.38,1.16-5.51.08-10.41-3.16-15.15-1.19-1.74-.95-4.62-.95-6.98.01-9.46.19-18.91.3-28.37.01-1.22,0-2.44,0-4.35-1.7,1.4-2.86,2.28-3.94,3.25-8.57,7.77-18.39,13.18-29.67,15.9-3.8.92-7.51,2.31-11.35,2.89-5.22.79-7.83,2.47-8.44,8.69-1.11,11.22-13.36,18.72-24.44,16.25-11.92-2.65-18.72-13.96-15.6-25.98,2.9-11.18,14.38-17.34,25.88-13.84,1.55.47,3.05,1.11,4.75,1.73,1.19-5.39,2.35-10.63,3.59-16.23-20.39,6.12-40.76,12.22-61.13,18.33-.25-.31-.5-.62-.75-.93,5.59-14.17,14.65-25.82,26.87-35.35-28.47-11.65-44.4-35.25-59.56-60.19,21.11-6.86,42.26-10.37,64.7-7.35-2.38-4.37-3.26-8.6-6.06-12.51-10.99-15.32-12.62-32.62-8.02-50.55,5.2-20.24,16.8-35.66,35.86-44.76,4.32-2.06,9.35-2.88,14.15-3.58,3.73-.54,4.37.68,3.79,4.32-.15.94.3,1.98.51,3.23-16.07,6.25-29.35,16.62-37.52,32.89-5.12,10.18-6.74,20.9-5.19,33.05.72-1.33,1.07-1.9,1.34-2.51,5.1-11.64,13.07-20.63,24.77-25.86,3.83-1.71,5.88-3.97,7.25-8.13,5.67-17.29,17.77-29.02,34.01-36.53,7.85-3.63,16.06-6.49,24.27-9.77-5.28-8.17-6.47-17.15-1.72-26.09,5.29-9.96,15.28-8.55,24.66-8.66.1-1.8.24-3.28.24-4.75,0-19.42.03-38.84-.12-58.26-.01-1.46-.92-3.41-2.07-4.27-11.78-8.88-16.99-22.18-13.68-35.55,3.32-13.41,14.63-23.38,29.14-25.69,14.77-2.35,30.19,6.39,36.46,20.65,6.05,13.77,1.79,30.03-10.16,39.48-1.27,1.01-2.57,2.92-2.59,4.42-.19,20.68-.15,41.36-.16,62.04,0,.49.09.99.19,2.01,2.84,0,5.69-.04,8.53,0,9.63.17,16.27,5.65,16.94,15.24.43,6.14-.76,12.39-1.29,19.43,2.38,1.65,5.92,4.01,9.36,6.5,6.6,4.76,12.3,10.39,16.76,17.26.75,1.16,2.11,2.24,3.41,2.68,16.02,5.49,25.19,17.11,30.28,32.79,5.45,16.77,2.29,33.1-1.83,49.41-1.53,6.07-3.53,12.05-5.8,17.88-.88,2.26-3.9,3.8-1.63,6.51,3.11-1.91,6.22-3.81,9.32-5.72.33.51.66,1.02.99,1.52-4.97,3.39-9.94,6.78-15.42,10.52,10.38-1.47,18.72-5.79,25.75-12.61,24.92-24.2,24.05-67.68-1.52-91.73-9.84-9.25-21.5-14.76-33.73-18.29.53-2.31,1.02-4.42,1.59-6.87,4.1-2.1,8.75-1.34,13.25-.18,17.19,4.43,30.46,14.75,39.79,29.43,16.56,26.06,16.76,53.16,2.92,80.55-.16.32-.23.69-.46,1.42,24.5-3.37,48.28-1.14,72.12,6.94-14.39,25.01-30.07,48.27-58.33,60.25,11.22,10.4,20.7,21.41,25.66,36.7-23.48-6.59-46.04-12.93-68.84-19.33,1.01,5.72,2.01,11.35,3.01,17.01,12.39-4.86,20.78-3.48,27.42,4.47,5.66,6.78,6.18,16.2,1.32,23.98-4.85,7.77-14,11.46-22.94,9.25-10.04-2.48-15.79-10.18-16.76-22.81-20.46-4.65-40.94-9.7-55.53-28.13-.11,2.16-.24,3.47-.24,4.78,0,10.97-.11,21.94.12,32.91.1,4.77-1.39,8.54-4.74,11.86-.85.85-1.43,2.63-1.21,3.81,2.21,11.97-3.66,22.33-15.27,26.04-2.64.84-3.65,1.94-3.46,4.7.23,3.39.27,6.83-.06,10.2-.18,1.79-1.31,3.49-2.03,5.22-.28.67-.83,1.32-.85,1.99-.12,5.04-.15,10.09-.19,15.13-.02,3.48,0,6.96.46,10.52,27.12-29.85,39.93-66.18,48.38-105.02Zm-56.51-108.46c-.07-.3-.14-.6-.21-.91-.87,0-1.73,0-2.6,0-7.43,0-14.87.03-22.3,0-2.49-.01-4.21-1.2-4.18-3.83.03-2.48,1.5-3.93,4.04-4.1,1-.06,2.02-.04,3.02-.03,7.18.03,14.36.12,21.55.05,1.09-.01,2.67-.41,3.18-1.19,1.49-2.25-.04-6.41-2.07-8.27-4.57-4.19-9.79-5.67-15.89-5.07-2.98.29-6.04-.18-9.06-.19-2.85-.01-4.74-1.26-4.78-4.16-.04-3.14,2.23-3.86,4.92-3.84,3.59.03,7.18,0,11.27,0-1.06-2.54-1.84-4.36-2.58-6.2-7.04-17.53-3.25-36.63,10.45-47.06,5.91-4.5,9.88-8.75,8.38-16.52-.15-.78.84-2.55,1.37-2.58,6.01-.33,2.88-4.42,3.56-7.42h-43.62v236.92c12.32,0,24.38.05,36.44-.12.73-.01,2-1.75,2.06-2.75.24-3.77-.06-7.56.13-11.34.15-3.01-1.05-3.95-3.96-3.93-7.94.06-15.87-.15-23.81-.18-2.88-.01-4.71-1.01-4.35-4.2.33-2.9,2.47-3.53,4.93-3.55,6.17-.04,12.35.04,18.52-.1,10.3-.24,8.91,2.26,9.07-9.64.04-2.68-1.08-3.45-3.62-3.42-7.56.07-15.12.02-22.68-.16-2.87-.07-6.55.61-6.75-3.99-.13-2.97,1.79-4.06,6.68-4.08.63,0,1.26,0,1.89,0,7.9,0,15.81,0,24.35,0,0-3.72-.12-6.98.04-10.23.13-2.68-1-3.46-3.57-3.44-7.68.07-15.37-.08-23.06-.13-2.89-.02-5.83-.06-6.24-3.85-.31-2.85,1.97-4.4,6.09-4.42,6.05-.03,12.1.04,18.14-.08,9.93-.2,8.46,1.87,8.8-8.83.11-3.61-1.28-4.42-4.62-4.33-7.68.2-15.37.06-23.06-.04-3.92-.05-5.6-1.74-5.03-4.88.5-2.75,2.44-3.54,4.99-3.53,7.94.04,15.88-.04,23.81.07,2.41.03,3.45-.77,3.39-3.24-.07-2.77-.03-5.55.22-8.31.2-2.25-.65-3.19-2.71-4.17-4.98-2.37-9.78-5.13-14.5-7.99-1.08-.66-2.09-2.37-2.06-3.57.02-.8,1.83-1.82,3.01-2.29,4.3-1.73,8.67-3.27,13.02-4.88Zm-55.25,15.89c.13-.28.27-.55.4-.83-.12-.21-.18-.51-.36-.63-1.38-.88-2.79-1.72-4.18-2.57-12.61-7.72-20.63-19.08-23.54-33.28-1.63-7.97-1.16-16.53-.59-24.75,1.48-21.19,12.23-36.29,31.39-45.45,1.11-.53,2.59-1.73,2.66-2.71.3-4.17.13-8.37.13-12.84-1.97.39-3.68.68-5.38,1.07-27.39,6.29-42.5,25.06-42.78,53.12-.06,5.8-.13,11.6-.04,17.39.28,18.14,6.1,34.08,19.11,47.04,3.3,3.29,7.33,5.18,11.93,5.48.24-.32.47-.65.71-.97-2.87-3.54-5.73-7.09-8.79-10.87,3.23,2.23,6.05,4.52,9.18,6.25,3.23,1.79,6.76,3.05,10.17,4.55Zm122.54-103.22c.35,1.28.45,1.75.61,2.19,9.62,27.32,2.71,56.84-22.57,73.44-7.21,4.73-15.21,8.33-23.07,11.97-5.35,2.48-11.09,4.11-16.66,6.13,0,.4,0,.8.01,1.19,7.09.34,14.21,1.26,21.26.9,20.87-1.08,37.29-10.91,49.25-27.68,17.35-24.33,6.48-54.03-8.83-68.15ZM213.84,28.91c.04-7.86-8.83-15.61-18.17-16.2-10.49-.67-20.68,7.7-21.85,17.95-1.16,10.2,4.55,19.51,12.79,20.89-1.97-3.77-3.96-7.57-5.95-11.37,6,4.41,11.98,4.84,18.3,2.43,6.59-2.51,9.04-8.18,10.17-14.6,1.82.35,3.24.63,4.71.91Zm-123.03,203.38c-11.49,6.3-18.7,21.28-16.84,35.42,1.74,13.25,13.97,28.52,25.29,31.18-1.7-1.93-3.19-3.63-5.14-5.84,2.42,1.41,4.09,2.39,5.77,3.37.27-.28.54-.55.81-.83-.37-2.18-.57-4.4-1.14-6.52-2.5-9.31-5.97-18.47-7.43-27.93-1.46-9.46-.95-19.22-1.31-28.83Zm75.35-76.9c4.38,0,8.87,0,13.37,0,11.57-.02,23.15-.09,34.72-.02,2.41.01,4.07-.58,3.9-3.24-.25-3.87,1.51-5.24,5.18-4.7.58.08,1.2-.15,1.77-.23.06-4.1-1.97-5.92-6.81-5.94-11.2-.06-22.39,0-33.59,0-4.91,0-9.86-.4-14.7.2-2.03.25-5.17,2.42-5.4,4.04-.42,3.07.9,6.39,1.56,9.9Zm90.17,91.31c4.87-6.39,3.84-18.02-2.1-27.65-7.34-11.9-20.52-18.08-33.44-15.67-12.17,2.27-22.91,11.41-24.61,21.04,10.47-10.56,22.84-13.26,36.4-7.87,13.33,5.31,20.94,15.85,23.75,30.14Zm122.98,53.11c-.12-.44-.24-.89-.36-1.33-18.1-3.62-36.07-3.61-53.89,2.08-2.44.78-2.4,2.51-2.68,4.34-.59,3.83-1.22,7.66-1.83,11.49-.15.93-.29,1.85-.61,3.82,20.31-6.98,39.84-13.7,59.37-20.41Zm-356.18-1.38c-.06.43-.12.86-.19,1.29,17.49,6.09,34.98,12.18,52.47,18.28-.81-4.47-2.1-8.4-2.08-12.33.03-4.09-1.59-5.85-5.2-6.92-10.96-3.24-22.11-3.23-33.31-2.16-3.92.38-7.8,1.22-11.69,1.85ZM199.38,69.96c-4.55,3.56-2.46,8.05-2.76,11.94-.32,4.18-.07,8.41-.07,12.62-.45-7.44-.44-14.87-.46-22.31-.01-5.34-.55-5.75-5.92-4.66v61.09c5.71.98,5.87.86,5.89-4.53.01-2.85,0-5.69,0-8.54.31.31.61.61.92.92.53-.6,1.45-1.15,1.53-1.79.74-6.34,1.57-12.69,1.88-19.05.12-2.56-1.35-5.16-1.49-7.77-.28-5.33-1.64-10.77.98-15.96.16-.32-.22-.92-.51-1.96Zm-28.67,355.75c0,2.69-.12,5.7.07,8.68.06.98.75,2.16,1.52,2.8,2.26,1.87,4.82,3.36,7.04,5.26,4.01,3.44,8.55,3.97,14.27,3.25-5.18-3.15-9.77-5.84-12.81-11.74,3.03,0,5.11.01,7.18,0,6.66-.05,13.33-.13,19.99-.14,2.45,0,3.08-1.44,2.75-3.45-.28-1.71,1.2-4.6-2.16-4.62-12.41-.11-24.82-.04-37.87-.04Zm-83.15-118.77c.99,15.45,7.62,26.02,19.84,33.13,5.14,2.99,7.17,2.38,10.81-3.11-1.03-.69-2-1.5-3.09-2.04-4.65-2.29-6.81-6.11-7.35-11.15-.13-1.26-.99-2.46-1.58-3.66-1.45-2.94-2.78-5.26-6.82-6.18-3.98-.9-7.4-4.25-11.8-6.99Zm169.23,45.18c-4.06,7.09-3.11,16.25,2.73,21.66,7.65,7.09,17.44,9.89,28.36,12.72-10.26-12.43-19.35-24.38-31.09-34.38Zm-148.05,33.19c.3.45.59.9.89,1.35,3.4-1.19,6.94-2.07,10.16-3.62,5.52-2.66,11.15-5.29,16.17-8.74,6.24-4.28,7.7-16.02,2.65-22.36-10.04,11.21-19.96,22.29-29.87,33.37Zm82.36,90.45c1.23,21.68-2.41,43.69,3.11,65.25.39,0,.79,0,1.18.01.56-10.6,1.12-21.2,1.68-31.8.11,0,.23,0,.34,0v8.26c.52-12.35.52-24.67.52-37,0-5.32-.87-5.98-6.83-4.73Zm84.83-139.07c4.36,5.86,5.8,6.27,11.61,2.55,9.49-6.08,15.94-14.48,18.71-25.52.4-1.6.61-3.26.98-5.32-2.99,1.08-5.29,2.26-7.72,2.71-2.92.54-4.28,2-4.83,4.83-.98,5.1-3.49,9.48-7.54,12.73-3.58,2.87-7.47,5.36-11.22,8.02Zm101.63-29.36c-17.29,8.09-34.52,16.14-51.19,23.94,21.7,3.17,38.68-5.52,51.19-23.94Zm-149.97-36.44c7.16-7.28,8.47-19.94,3.58-29.07-3.35-6.26-8.49-9.5-15.63-9.1-7.68.43-14.83,7.54-14.21,13.91,7.42-6.42,14.1-7.23,20.8-2.54,7.85,5.49,9.95,14.95,5.46,26.81Zm-151.97,60.7c-16.69-7.97-33.6-16.04-50.29-24.01,11.42,17.27,32.43,27.29,50.29,24.01Zm60.84-85.29c1.71-9.74,7.31-15.56,15.52-19.13.47-.21,1.02-.88,1.05-1.37.32-5.32.54-10.64.8-16.2-13.36,4.9-22.42,23.78-17.37,36.7Zm126.99,100.5c5.38,6.63,10.76,12.95,15.78,19.54,5,6.56,9.64,13.4,14.62,20.36-1.67-20.16-12.09-37.63-30.4-39.9Zm-161.74,40.15c.71,0,.9.05.95,0,8.93-12.17,17.87-24.33,26.74-36.55.43-.59.66-2.07.39-2.26-.72-.49-2-.95-2.66-.62-3.21,1.63-6.76,3.03-9.34,5.42-7.5,6.95-11.78,15.91-14.31,25.73-.7,2.7-1.18,5.46-1.78,8.29Zm210.28-28.38c10.94,3.7,21.82,7.38,32.7,11.06-8-8.66-17.24-15.3-28.22-19.29-2.19-.79-4.76,1.48-4.78,3.93-.01,1.23.17,2.46.31,4.29Zm4.21,37.24c-4.2-.08-8.34,3.91-8.38,8.08-.04,4.12,3.81,7.99,7.96,7.98,4.19,0,8.17-3.81,8.17-7.82,0-4.23-3.69-8.16-7.74-8.24Zm-236.13,15.99c4.41-.07,8.07-3.65,8.05-7.86-.02-4.22-4.15-8.07-8.49-7.93-4.05.13-7.77,4.21-7.63,8.36.13,3.98,3.95,7.49,8.08,7.43Zm-19.39-44.35c.17.31.33.63.5.94,9.17-3.46,18.33-6.92,27.54-10.39-.87-2.28-1.41-3.55-1.83-4.86-.72-2.22-2.02-2.52-4.06-1.6-8.47,3.83-15.65,9.4-22.15,15.9Zm72.72-102.39c4,10.12,9.66,18.77,20.41,23.94,0-2.78.23-4.94-.09-7.01-.17-1.07-1.1-2.52-2.03-2.89-7.48-2.9-13.86-7.12-18.28-14.04Zm54.5,189.26v12.25c2.97-.68,6.57,2.09,8.08-1.91,1.04.55,2.04,1.09,3.04,1.63-2.43-2.29-2.62-5.17-2.76-7.95-.15-2.93-1.19-4.51-4.39-4.04-1.1.16-2.24.03-3.98.03Zm63.8-259.73c-3.01-6.09-7.37-10.67-13.26-13.95.06,2.5.13,5.4,1.58,6.58,3.55,2.88,7.74,4.97,11.68,7.37Zm-104.24,65.14c6.62-3.4,7.65-6.15,5.45-14.25-3.79,4.08-6.04,8.47-5.45,14.25Z"/>
    <path class="cls-1" d="m388.31,209.71c-.97,22.59-8.31,42.59-24.2,59.08-1.04,1.08-2.22,2.08-3.51,2.85-3.46,2.06-7.48,1.24-9.81-1.86-2.03-2.7-1.42-5.65,1.17-8.87,4.87-6.05,10.49-11.77,14.06-18.54,12.54-23.77,10.93-47.5-2.03-70.73-.68-1.21-1.42-2.39-1.98-3.65-1.68-3.74-.61-7.38,2.62-9.19,3.36-1.88,7.17-1.26,9.27,2.22,2.59,4.29,4.77,8.87,6.78,13.47,4.9,11.2,7.85,22.86,7.62,35.22Z"/>
    <path class="cls-1" d="m147.74,106.09c-2.7,5.02-5.43,9.68-7.77,14.52-6.66,13.83-10.18,28.4-9.95,43.82.02,1.46-.19,3.09-.82,4.38-1.81,3.7-5.91,4.65-9.45,2.08-9.02-6.55-18.49-12.25-29.21-15.52-4.07-1.24-8.32-1.93-12.52-2.7-5.01-.92-8.02-3.93-7.51-7.77.58-4.34,4.35-6.5,9.81-5.66,10.82,1.67,20.95,5.3,30.53,10.57,2.18,1.2,4.42,2.26,6.91,3.53.78-11.08,3.28-21.35,7.72-31,2.51-5.45,5.88-10.52,9.04-15.65.52-.85,1.96-1.66,2.94-1.62,3.24.11,6.46.62,10.27,1.04Z"/>
    <path class="cls-1" d="m266.4,152.78c9.02-6.38,18.36-10.3,28.28-12.86,2.06-.53,4.19-.98,6.3-1.08,4.42-.21,7.66,2.22,8.05,5.74.4,3.65-2.49,6.82-6.54,8.01-7.32,2.15-14.81,4.05-21.73,7.15-6.26,2.8-11.8,7.2-17.82,10.58-1.77,1-4.72,1.94-6.07,1.13-1.62-.97-3-3.85-2.96-5.88.42-20.69-5.17-39.55-16.44-56.82-1.03-1.57-1.81-3.31-2.67-4.99-.08-.16.08-.45.06-.34,4.1.46,8.22.61,12.17,1.51,1.7.39,3.39,2.07,4.49,3.59,8.54,11.83,12.66,25.34,14.56,39.63.16,1.23.17,2.48.31,4.62Z"/>
    <path class="cls-1" d="m247.61,31.47c6.03,14.54,12.4,28.53,17.63,42.94,4.98,13.72-3.51,26.83-17.87,29.16-7.27,1.18-16.7-4.07-20.57-11.47-3.44-6.58-3.91-13.51-.64-20.04,6.82-13.6,14.18-26.93,21.44-40.6Zm-8,49.26c5.8,3.94,11.74,2.06,11.88-4.02.2-8.74-3.24-16.72-5.71-25.52-3.77,7.52-7.26,14.33-10.6,21.21-.93,1.91-1.71,3.97-2.07,6.04-1.7,9.81,6.82,18.3,13.87,15.34-7.9-4.15-9.35-6.73-7.36-13.05Z"/>
    <path class="cls-1" d="m141.65,31.27c6.68,13.44,13.5,26.59,19.77,40,3.18,6.79,2.97,13.94-.71,20.75-4.85,8.96-13.85,13.21-23.43,11-8.53-1.97-15.49-10.52-15.54-19.99-.02-3.92.63-8.14,2.14-11.73,5.59-13.3,11.67-26.4,17.77-40.04Zm-5.83,50.14c2.38.66,4.4,1.78,6.33,1.65,3.55-.25,5.68-3.64,5.86-8.09.36-8.67-3.33-16.21-6.44-24.53-2.17,4.94-4.13,9.27-5.97,13.66-1.89,4.52-4.1,8.96-5.35,13.66-2.09,7.89,3.06,15.47,10.75,15.98-4.68-3.01-6.45-6.93-5.19-12.33Z"/>
    <path class="cls-1" d="m59,81.61c21.44,1.54,39.94,6.5,51.14,25.6,1.98,3.38,3.06,7.43,3.86,11.31.9,4.38-.77,7.03-5.21,7.52-4.26.48-8.87.4-12.97-.74-15.04-4.18-24.29-15.02-30.77-28.56-2.2-4.6-3.82-9.49-6.05-15.13Zm29.58,22.49c4.49,1.33,6.69,6.28,11.84,6.99-3.23-8.72-17.31-18.26-28.72-19.91,4.25,10.12,19.25,25.44,27.42,25.43-3.56-4.23-7-8.31-10.54-12.51Z"/>
    <path class="cls-1" d="m323.68,82.32c-6.09,20.16-15.43,37.37-37.74,43.14-3.42.88-7.21.78-10.78.5-3.14-.25-4.97-2.47-4.54-5.79.37-2.85.75-5.77,1.72-8.45,6.44-17.95,31.95-32.59,51.35-29.39Zm-34.34,30.42l1.42.83c9.54-5.03,15.28-13.57,20.71-22.43-12.46,3.15-23.24,8.53-28.92,21.08,3.69-2.25,7.37-4.49,10.7-6.52-1.21,2.19-2.56,4.61-3.91,7.04Z"/>
    <path class="cls-1" d="m36.33,128.07c10.08.17,18.92,9.05,18.82,18.89-.11,10.48-9.82,19.43-20.78,19.16-9.63-.24-17.88-9.13-17.67-19.06.21-10.42,9.26-19.16,19.64-18.99Zm-2.53,27.29c-.6-2.74-2.2-5.73-1.48-7.97.74-2.32,3.74-3.92,6.01-6.08-1.21-2.1-3.54-3.03-6.54-1.89-3.33,1.26-5.73,5.85-5.19,9.62.52,3.6,3.76,6.18,7.2,6.33Z"/>
    <path class="cls-1" d="m341.9,121.57c5.17,5.56,10.63,10.75,15.24,16.61,3.38,4.29,3.99,9.74,2.3,15.12-3.18,10.13-14.02,15.52-23.41,11.71-9.99-4.06-14.4-15.38-9.66-24.99.94-1.9,2.07-3.78,3.46-5.36,3.73-4.24,7.64-8.31,12.06-13.08Zm-.85,9.65c-.49-.17-.97-.35-1.46-.52-2.65,4.76-5.56,9.39-7.86,14.31-1.55,3.31.36,7.18,3.31,8.11,2.8.88,5.49-.93,5.88-5.14.51-5.54.13-11.17.13-16.76Z"/>
    <path class="cls-1" d="m29.07,191.78c3.47,6.01,6.73,11.2,9.51,16.63,2.1,4.1,1.02,7.89-2.34,10.86-3.34,2.95-8.26,3.26-12.27.77-3.3-2.05-5.26-6.21-3.67-10.16,2.41-5.96,5.57-11.62,8.76-18.1Zm1,10.82c-.51-.09-1.03-.17-1.54-.26-1.17,2.28-2.63,4.48-3.36,6.89-.29.96,1.05,2.41,1.64,3.64,1.09-.76,2.96-1.39,3.11-2.31.43-2.59.15-5.3.15-7.96Z"/>
    <path class="cls-1" d="m353.93,184.38c3.3,6.53,6.43,11.94,8.78,17.67,1.5,3.64.05,7.23-3.08,9.78-3.03,2.46-6.43,2.8-9.87.96-3.53-1.88-5.39-4.86-4.99-8.96.15-1.49.27-3.1.93-4.39,2.4-4.68,5.03-9.24,8.24-15.06Zm.57,11.53c-.64-.14-1.27-.29-1.91-.43-.88,2.42-1.9,4.8-2.54,7.27-.16.62.92,1.55,1.43,2.34.85-.58,2.3-1.04,2.43-1.75.45-2.43.43-4.95.59-7.43Z"/>
    <path class="cls-1" d="m44.18,168.36c3.04,5.39,6.07,10.04,8.36,15.04,2.26,4.94-.33,10.58-5.1,12.53-4.35,1.79-9.7-.51-12.05-5.17-1.67-3.3-.6-6.38.8-9.4.58-1.25,1.28-2.46,2.01-3.63,1.79-2.87,3.63-5.7,5.98-9.38Zm.53,10.82c-.56-.13-1.12-.26-1.68-.38-1.06,1.7-2.43,3.3-3.03,5.15-.27.84.99,2.18,1.56,3.29,1.05-.7,2.79-1.23,3.02-2.14.47-1.86.14-3.93.14-5.91Z"/>
    <path class="cls-1" d="m33.9,247.24c3.85.11,7.12,3.58,7.01,7.47-.11,4.02-3.63,7.51-7.54,7.48-4.07-.03-7.29-3.48-7.16-7.68.12-4.04,3.65-7.38,7.69-7.27Z"/>
    <path class="cls-1" d="m340.91,183.36c.06,3.82-3.03,7.14-6.68,7.21-3.36.06-6.54-3.28-6.57-6.91-.03-3.78,3.12-7.13,6.75-7.17,3.53-.04,6.45,3.04,6.5,6.86Z"/>
  </g>
</svg>